<mxfile host="www.draw.io" modified="2020-01-13T18:44:43.916Z" agent="Mozilla/5.0 (Macintosh; Intel Mac OS X 10_14_0) AppleWebKit/537.36 (KHTML, like Gecko) Chrome/79.0.3945.88 Safari/537.36" etag="aM0jl74F1woftyirvlBa" version="12.5.1" type="github">
  <diagram id="K4Y9c60m_IYphAShx8Kb" name="Page-1">
    <mxGraphModel dx="513" dy="390" grid="1" gridSize="10" guides="1" tooltips="1" connect="1" arrows="1" fold="1" page="1" pageScale="1" pageWidth="827" pageHeight="1169" math="0" shadow="0">
      <root>
        <mxCell id="0"/>
        <mxCell id="1" parent="0"/>
        <mxCell id="5LLZDGen6Ay4yeSeS8v1-1" value="" style="shape=parallelogram;perimeter=parallelogramPerimeter;whiteSpace=wrap;html=1;" vertex="1" parent="1">
          <mxGeometry x="110" y="320" width="360" height="120" as="geometry"/>
        </mxCell>
        <mxCell id="5LLZDGen6Ay4yeSeS8v1-6" value="" style="endArrow=none;html=1;exitX=0;exitY=0.25;exitDx=0;exitDy=0;entryX=0.933;entryY=0.324;entryDx=0;entryDy=0;entryPerimeter=0;" edge="1" parent="1" source="5LLZDGen6Ay4yeSeS8v1-1" target="5LLZDGen6Ay4yeSeS8v1-1">
          <mxGeometry width="50" height="50" relative="1" as="geometry">
            <mxPoint x="20" y="230" as="sourcePoint"/>
            <mxPoint x="310" y="96" as="targetPoint"/>
          </mxGeometry>
        </mxCell>
        <mxCell id="5LLZDGen6Ay4yeSeS8v1-9" value="" style="endArrow=none;html=1;entryX=0;entryY=0;entryDx=0;entryDy=0;exitX=0.962;exitY=0.173;exitDx=0;exitDy=0;exitPerimeter=0;" edge="1" parent="1" source="5LLZDGen6Ay4yeSeS8v1-1" target="5LLZDGen6Ay4yeSeS8v1-1">
          <mxGeometry width="50" height="50" relative="1" as="geometry">
            <mxPoint x="324" y="42" as="sourcePoint"/>
            <mxPoint x="60" y="190" as="targetPoint"/>
          </mxGeometry>
        </mxCell>
        <mxCell id="5LLZDGen6Ay4yeSeS8v1-10" value="" style="endArrow=none;html=1;entryX=0;entryY=0.5;entryDx=0;entryDy=0;exitX=1;exitY=0.5;exitDx=0;exitDy=0;" edge="1" parent="1" source="5LLZDGen6Ay4yeSeS8v1-1" target="5LLZDGen6Ay4yeSeS8v1-1">
          <mxGeometry width="50" height="50" relative="1" as="geometry">
            <mxPoint x="290" y="123" as="sourcePoint"/>
            <mxPoint x="62.01999999999998" y="51.99000000000001" as="targetPoint"/>
          </mxGeometry>
        </mxCell>
        <mxCell id="5LLZDGen6Ay4yeSeS8v1-11" value="" style="endArrow=none;html=1;entryX=0;entryY=0.75;entryDx=0;entryDy=0;exitX=0.853;exitY=0.725;exitDx=0;exitDy=0;exitPerimeter=0;" edge="1" parent="1" source="5LLZDGen6Ay4yeSeS8v1-1" target="5LLZDGen6Ay4yeSeS8v1-1">
          <mxGeometry width="50" height="50" relative="1" as="geometry">
            <mxPoint x="316" y="95" as="sourcePoint"/>
            <mxPoint x="44" y="95" as="targetPoint"/>
          </mxGeometry>
        </mxCell>
        <mxCell id="5LLZDGen6Ay4yeSeS8v1-12" value="" style="endArrow=none;html=1;entryX=0.362;entryY=0.002;entryDx=0;entryDy=0;entryPerimeter=0;exitX=0.167;exitY=1;exitDx=0;exitDy=0;exitPerimeter=0;" edge="1" parent="1" source="5LLZDGen6Ay4yeSeS8v1-1" target="5LLZDGen6Ay4yeSeS8v1-1">
          <mxGeometry width="50" height="50" relative="1" as="geometry">
            <mxPoint x="54" y="211" as="sourcePoint"/>
            <mxPoint x="270" y="230" as="targetPoint"/>
          </mxGeometry>
        </mxCell>
        <mxCell id="5LLZDGen6Ay4yeSeS8v1-14" value="" style="endArrow=none;html=1;exitX=0.315;exitY=1.002;exitDx=0;exitDy=0;exitPerimeter=0;entryX=0.524;entryY=-0.004;entryDx=0;entryDy=0;entryPerimeter=0;" edge="1" parent="1" source="5LLZDGen6Ay4yeSeS8v1-1" target="5LLZDGen6Ay4yeSeS8v1-1">
          <mxGeometry width="50" height="50" relative="1" as="geometry">
            <mxPoint x="136" y="200" as="sourcePoint"/>
            <mxPoint x="190" y="40" as="targetPoint"/>
          </mxGeometry>
        </mxCell>
        <mxCell id="5LLZDGen6Ay4yeSeS8v1-15" value="" style="endArrow=none;html=1;entryX=0.682;entryY=0.002;entryDx=0;entryDy=0;exitX=0.479;exitY=0.996;exitDx=0;exitDy=0;exitPerimeter=0;entryPerimeter=0;" edge="1" parent="1" source="5LLZDGen6Ay4yeSeS8v1-1" target="5LLZDGen6Ay4yeSeS8v1-1">
          <mxGeometry width="50" height="50" relative="1" as="geometry">
            <mxPoint x="203" y="213" as="sourcePoint"/>
            <mxPoint x="200.06000000000006" y="48.98000000000002" as="targetPoint"/>
          </mxGeometry>
        </mxCell>
        <mxCell id="5LLZDGen6Ay4yeSeS8v1-16" value="" style="endArrow=none;html=1;entryX=0.844;entryY=-0.004;entryDx=0;entryDy=0;exitX=0.638;exitY=1.008;exitDx=0;exitDy=0;exitPerimeter=0;entryPerimeter=0;" edge="1" parent="1" source="5LLZDGen6Ay4yeSeS8v1-1" target="5LLZDGen6Ay4yeSeS8v1-1">
          <mxGeometry width="50" height="50" relative="1" as="geometry">
            <mxPoint x="172.86" y="219.32" as="sourcePoint"/>
            <mxPoint x="279.96000000000004" y="51.01999999999998" as="targetPoint"/>
          </mxGeometry>
        </mxCell>
        <mxCell id="5LLZDGen6Ay4yeSeS8v1-17" value="" style="shape=parallelogram;perimeter=parallelogramPerimeter;whiteSpace=wrap;html=1;" vertex="1" parent="1">
          <mxGeometry x="220" y="220" width="170" height="70" as="geometry"/>
        </mxCell>
        <mxCell id="5LLZDGen6Ay4yeSeS8v1-18" value="" style="endArrow=none;html=1;entryX=0.25;entryY=1;entryDx=0;entryDy=0;exitX=0.455;exitY=0;exitDx=0;exitDy=0;exitPerimeter=0;" edge="1" parent="1" source="5LLZDGen6Ay4yeSeS8v1-17" target="5LLZDGen6Ay4yeSeS8v1-17">
          <mxGeometry width="50" height="50" relative="1" as="geometry">
            <mxPoint x="150" y="180" as="sourcePoint"/>
            <mxPoint x="240" y="130" as="targetPoint"/>
          </mxGeometry>
        </mxCell>
        <mxCell id="5LLZDGen6Ay4yeSeS8v1-19" value="" style="endArrow=none;html=1;entryX=0.547;entryY=1.006;entryDx=0;entryDy=0;entryPerimeter=0;exitX=0.75;exitY=0;exitDx=0;exitDy=0;" edge="1" parent="1" source="5LLZDGen6Ay4yeSeS8v1-17" target="5LLZDGen6Ay4yeSeS8v1-17">
          <mxGeometry width="50" height="50" relative="1" as="geometry">
            <mxPoint x="227.84000000000003" y="10.329999999999998" as="sourcePoint"/>
            <mxPoint x="190" y="120.00000000000001" as="targetPoint"/>
          </mxGeometry>
        </mxCell>
        <mxCell id="5LLZDGen6Ay4yeSeS8v1-20" value="" style="endArrow=none;html=1;entryX=1;entryY=0.25;entryDx=0;entryDy=0;exitX=0.155;exitY=0.258;exitDx=0;exitDy=0;exitPerimeter=0;" edge="1" parent="1" source="5LLZDGen6Ay4yeSeS8v1-17" target="5LLZDGen6Ay4yeSeS8v1-17">
          <mxGeometry width="50" height="50" relative="1" as="geometry">
            <mxPoint x="252" y="211" as="sourcePoint"/>
            <mxPoint x="200.34000000000003" y="130.65999999999997" as="targetPoint"/>
          </mxGeometry>
        </mxCell>
        <mxCell id="5LLZDGen6Ay4yeSeS8v1-21" value="" style="endArrow=none;html=1;exitX=0.083;exitY=0.597;exitDx=0;exitDy=0;exitPerimeter=0;entryX=0.879;entryY=0.597;entryDx=0;entryDy=0;entryPerimeter=0;" edge="1" parent="1" source="5LLZDGen6Ay4yeSeS8v1-17" target="5LLZDGen6Ay4yeSeS8v1-17">
          <mxGeometry width="50" height="50" relative="1" as="geometry">
            <mxPoint x="112.33999999999997" y="48.70999999999998" as="sourcePoint"/>
            <mxPoint x="261" y="78" as="targetPoint"/>
          </mxGeometry>
        </mxCell>
        <mxCell id="5LLZDGen6Ay4yeSeS8v1-22" value="" style="endArrow=none;dashed=1;html=1;entryX=0.08;entryY=0.6;entryDx=0;entryDy=0;entryPerimeter=0;exitX=0;exitY=0.25;exitDx=0;exitDy=0;" edge="1" parent="1" source="5LLZDGen6Ay4yeSeS8v1-1" target="5LLZDGen6Ay4yeSeS8v1-17">
          <mxGeometry width="50" height="50" relative="1" as="geometry">
            <mxPoint x="110" y="510" as="sourcePoint"/>
            <mxPoint x="160" y="460" as="targetPoint"/>
          </mxGeometry>
        </mxCell>
        <mxCell id="5LLZDGen6Ay4yeSeS8v1-23" value="" style="endArrow=none;dashed=1;html=1;entryX=0;entryY=1;entryDx=0;entryDy=0;exitX=0;exitY=1;exitDx=0;exitDy=0;" edge="1" parent="1" source="5LLZDGen6Ay4yeSeS8v1-1" target="5LLZDGen6Ay4yeSeS8v1-17">
          <mxGeometry width="50" height="50" relative="1" as="geometry">
            <mxPoint x="169.09090909090912" y="368.18181818181824" as="sourcePoint"/>
            <mxPoint x="243.60000000000002" y="272" as="targetPoint"/>
          </mxGeometry>
        </mxCell>
        <mxCell id="5LLZDGen6Ay4yeSeS8v1-24" value="" style="endArrow=none;dashed=1;html=1;entryX=0.25;entryY=1;entryDx=0;entryDy=0;exitX=0.48;exitY=0.992;exitDx=0;exitDy=0;exitPerimeter=0;" edge="1" parent="1" source="5LLZDGen6Ay4yeSeS8v1-1" target="5LLZDGen6Ay4yeSeS8v1-17">
          <mxGeometry width="50" height="50" relative="1" as="geometry">
            <mxPoint x="179.09090909090912" y="378.18181818181824" as="sourcePoint"/>
            <mxPoint x="253.60000000000002" y="282" as="targetPoint"/>
          </mxGeometry>
        </mxCell>
        <mxCell id="5LLZDGen6Ay4yeSeS8v1-25" value="" style="endArrow=none;dashed=1;html=1;" edge="1" parent="1">
          <mxGeometry width="50" height="50" relative="1" as="geometry">
            <mxPoint x="330" y="360" as="sourcePoint"/>
            <mxPoint x="280" y="270" as="targetPoint"/>
          </mxGeometry>
        </mxCell>
        <mxCell id="5LLZDGen6Ay4yeSeS8v1-26" value="" style="shape=parallelogram;perimeter=parallelogramPerimeter;whiteSpace=wrap;html=1;" vertex="1" parent="1">
          <mxGeometry x="280" y="160" width="90" height="30" as="geometry"/>
        </mxCell>
        <mxCell id="5LLZDGen6Ay4yeSeS8v1-27" value="" style="endArrow=none;dashed=1;html=1;entryX=0;entryY=1;entryDx=0;entryDy=0;" edge="1" parent="1" target="5LLZDGen6Ay4yeSeS8v1-26">
          <mxGeometry width="50" height="50" relative="1" as="geometry">
            <mxPoint x="220" y="290" as="sourcePoint"/>
            <mxPoint x="160" y="460" as="targetPoint"/>
          </mxGeometry>
        </mxCell>
        <mxCell id="5LLZDGen6Ay4yeSeS8v1-28" value="" style="endArrow=none;dashed=1;html=1;entryX=0.75;entryY=1;entryDx=0;entryDy=0;exitX=0.809;exitY=1;exitDx=0;exitDy=0;exitPerimeter=0;" edge="1" parent="1" source="5LLZDGen6Ay4yeSeS8v1-17" target="5LLZDGen6Ay4yeSeS8v1-26">
          <mxGeometry width="50" height="50" relative="1" as="geometry">
            <mxPoint x="358" y="280" as="sourcePoint"/>
            <mxPoint x="160" y="460" as="targetPoint"/>
          </mxGeometry>
        </mxCell>
        <mxCell id="5LLZDGen6Ay4yeSeS8v1-29" value="" style="endArrow=none;dashed=1;html=1;entryX=0;entryY=0;entryDx=0;entryDy=0;exitX=0.195;exitY=-0.02;exitDx=0;exitDy=0;exitPerimeter=0;" edge="1" parent="1" source="5LLZDGen6Ay4yeSeS8v1-17" target="5LLZDGen6Ay4yeSeS8v1-26">
          <mxGeometry width="50" height="50" relative="1" as="geometry">
            <mxPoint x="110" y="510" as="sourcePoint"/>
            <mxPoint x="160" y="460" as="targetPoint"/>
          </mxGeometry>
        </mxCell>
        <mxCell id="5LLZDGen6Ay4yeSeS8v1-30" value="" style="endArrow=none;dashed=1;html=1;entryX=1;entryY=0;entryDx=0;entryDy=0;exitX=1;exitY=0;exitDx=0;exitDy=0;" edge="1" parent="1" source="5LLZDGen6Ay4yeSeS8v1-17" target="5LLZDGen6Ay4yeSeS8v1-26">
          <mxGeometry width="50" height="50" relative="1" as="geometry">
            <mxPoint x="110" y="510" as="sourcePoint"/>
            <mxPoint x="160" y="460" as="targetPoint"/>
          </mxGeometry>
        </mxCell>
      </root>
    </mxGraphModel>
  </diagram>
</mxfile>
